<?xml version="1.0" encoding="UTF-8"?>
<svg width="500" height="179" version="1.1" viewBox="0 0 500 179" xmlns="http://www.w3.org/2000/svg">
<path d="m182.01 73.334c0 6.6565-3.043 10.65-11.031 10.65h-19.209c-7.7976 0-10.841-3.9939-10.841-10.65v-40.51c0-6.6565 3.043-9.8897 10.841-9.8897h19.209c7.9878 0 11.031 3.2332 11.031 9.8897zm-138.84 65.995h-9.1289c-0.95093 0-1.1411 0.19018-1.3313 0.76074l-9.6995 25.105c0 0.38038-0.57056 1.5215-0.57056 1.5215-0.19018 0.38037-0.38037 0.57055-0.57056 0.57055-0.19018 0-0.38037-0.19018-0.57055-0.57055 0 0-0.57056-1.1411-0.57056-1.5215l-9.6995-25.105c-0.19019-0.57056-0.57056-0.76074-1.3313-0.76074h-8.9388c-0.57056 0-0.76075 0.19018-0.76075 0.38037v38.037c0 0.38037 0.19019 0.57056 0.76075 0.57056h6.2762c0.57056 0 0.76074-0.19019 0.76074-0.57056v-26.436c0-0.57056 0.57056-0.57056 0.76075-0.19019l10.08 26.436c0 0.19019 0.19018 0.38037 0.38037 0.57056 0.19018 0.19019 0.38037 0.19019 0.95093 0.19019h3.8037c0.38037 0 0.76074 0 0.95093-0.19019s0.38037-0.38037 0.38037-0.57056l10.08-26.436c0-0.38037 0.76075-0.38037 0.76075 0.19019v26.436c0 0.38037 0.19019 0.57056 0.76074 0.57056h6.2762c0.57056 0 0.76074-0.19019 0.76074-0.57056v-38.037c0-0.19019-0.19019-0.38037-0.57056-0.38037zm281.67 19.209c-0.38037 0-0.57055-0.38037-0.57055-0.76074v-12.362h12.172c3.8037 0 5.5154 1.7117 5.5154 5.5154v1.9019c0 3.6135-1.7117 5.7056-5.5154 5.7056zm13.123-19.399h-20.16c-0.38036 0-0.76074 0.38037-0.76074 0.76075v37.847c0 0.38037 0.38038 0.57056 0.76074 0.57056h5.7056c0.38036 0 0.76074-0.19019 0.76074-0.57056v-12.362c0-0.38037 0.19018-0.57056 0.57055-0.57056h9.8897 0.38036 2.8528c6.6565 0 10.27-3.8037 10.841-9.3191v-1.1411-4.7547c0-6.2762-3.8037-10.46-10.841-10.46zm-193.04 0h-30.049c-0.38038 0-0.76075 0.38037-0.76075 0.76075v4.9448c0 0.38037 0.38037 0.57056 0.76075 0.57056h11.411v32.332c0 0.38037 0.38037 0.57056 0.76075 0.57056h5.7056c0.38037 0 0.76074-0.19019 0.76074-0.57056v-32.332h11.411c0.38038 0 0.76075-0.19019 0.76075-0.57056v-4.9448c0-0.38038-0.38037-0.76075-0.76075-0.76075zm247.43 15.976v11.601c0 3.6135-1.7117 5.3252-5.5154 5.3252h-7.4173c-3.8037 0-5.5154-1.7117-5.5154-5.3252v-15.785c0-3.8037 1.7117-5.3252 5.5154-5.3252h7.4173c3.8037 0 5.5154 1.5215 5.5154 5.3252zm-3.8037-15.976h-10.841c-7.2271 0-11.031 4.1841-11.031 10.46v18.448c0 6.086 3.8037 10.27 11.031 10.27h10.841c7.0369 0 10.841-4.1841 10.841-10.27v-18.448c0-6.2762-3.8037-10.46-10.841-10.46zm-199.89 15.976v11.601c0 3.6135-1.5215 5.3252-5.5154 5.3252h-7.2271c-3.9939 0-5.5154-1.7117-5.5154-5.3252v-15.785c0-3.8037 1.5215-5.3252 5.5154-5.3252h7.2271c3.9939 0 5.5154 1.5215 5.5154 5.3252zm-3.6135-15.976h-11.031c-7.0369 0-10.841 4.1841-10.841 10.46v18.448c0 6.086 3.8037 10.27 10.841 10.27h11.031c7.0369 0 10.841-4.1841 10.841-10.27v-18.448c0-6.2762-3.8037-10.46-10.841-10.46zm-95.854 15.976v11.601c0 3.6135-1.7117 5.3252-5.5154 5.3252h-7.4173c-3.8037 0-5.5154-1.7117-5.5154-5.3252v-15.785c0-3.8037 1.7117-5.3252 5.5154-5.3252h7.4173c3.8037 0 5.5154 1.5215 5.5154 5.3252zm-3.8037-15.976h-11.031c-7.0369 0-10.841 4.1841-10.841 10.46v18.448c0 6.086 3.8037 10.27 10.841 10.27h11.031c7.0369 0 10.841-4.1841 10.841-10.27v-18.448c0-6.2762-3.8037-10.46-10.841-10.46zm359.07 13.693c0 3.6135-1.5215 5.7056-5.3252 5.7056h-11.601c-0.38038 0-0.76074-0.38037-0.76074-0.76074v-12.362h12.362c3.8037 0 5.3252 1.7117 5.3252 5.5154zm0.95093 11.601c-0.19018-0.38037 0-0.76075 0.38038-0.95093 3.8037-1.3313 5.7056-4.5645 5.7056-9.129v-4.7547c0-6.2762-3.8037-10.46-10.841-10.46h-20.35c-0.38036 0-0.57056 0.38037-0.57056 0.76075v37.847c0 0.38037 0.1902 0.57056 0.57056 0.57056h5.8958c0.38036 0 0.57056-0.19019 0.57056-0.57056v-12.362c0-0.38037 0.38036-0.57056 0.76074-0.57056h9.8897c0.19018 0 0.38036 0 0.57056 0.19019l6.6565 12.933c0 0.38038 0.19018 0.38038 0.57056 0.38038h6.086c0.57056 0 0.95094-0.38038 0.57056-0.95094zm-154.43-8.9388c-2.6626-0.57056-14.074-2.6626-14.074-2.6626-2.2822-0.38037-2.8528-0.76075-2.8528-2.4724v-1.1411c0-3.2332 0.76076-3.6135 4.5645-3.6135h16.356c0.38036 0 0.76073-0.19019 0.76073-0.57056v-4.7547c0-0.38037-0.19018-0.76075-0.57055-0.76075-2.0921-0.19018-8.7486-0.57056-16.356-0.57056-8.9388 0-12.172 2.6626-12.172 9.5093v3.4234c0 5.8958 3.043 6.4663 8.9388 7.6074 1.9019 0.38038 10.27 1.7117 12.933 2.2822 2.0921 0.38037 2.4724 1.5215 2.4724 2.8528v3.043c0 3.6135-1.3313 4.1841-5.8958 4.1841h-17.687c-0.38038 0-0.57056 0.38037-0.57056 0.76074l-0.19019 4.7547c0 0.38038 0.38037 0.76075 0.76075 0.76075 2.2822 0 10.841 0.57056 18.638 0.57056 9.129 0 11.982-2.8528 11.982-9.8897v-5.135c0-4.9448-1.5215-7.0369-7.0369-8.178zm-50.209-2.6626c0 3.6135-1.5215 5.7056-5.5154 5.7056h-11.411c-0.38038 0-0.76073-0.38037-0.76073-0.76074v-12.362h12.172c3.9939 0 5.5154 1.7117 5.5154 5.5154zm0.95094 11.601c-0.19018-0.38037 0-0.76075 0.38038-0.95093 3.6135-1.3313 5.5154-4.5645 5.5154-9.129v-4.7547c0-6.2762-3.8037-10.46-10.841-10.46h-20.16c-0.38038 0-0.76074 0.38037-0.76074 0.76075v37.847c0 0.38037 0.38036 0.57056 0.76074 0.57056h5.8958c0.38036 0 0.57056-0.19019 0.57056-0.57056v-12.362c0-0.38037 0.38035-0.57056 0.76073-0.57056h9.6995c0.38038 0 0.57056 0 0.76076 0.19019l6.4663 12.933c0.1902 0.38038 0.38038 0.38038 0.76076 0.38038h6.086c0.57055 0 0.76075-0.38038 0.57055-0.95094zm257.51-25.295h-30.049c-0.38036 0-0.76073 0.38037-0.76073 0.76075v4.9448c0 0.38037 0.38037 0.57056 0.76073 0.57056h11.411v32.332c0 0.38037 0.38036 0.57056 0.76074 0.57056h5.7056c0.38038 0 0.76075-0.19019 0.76075-0.57056v-32.332h11.411c0.38038 0 0.76074-0.19019 0.76074-0.57056v-4.9448c0-0.38038-0.38036-0.76075-0.76074-0.76075zm-123.81-138.65h-23.583c-0.95094 0-1.9019 0.76074-1.9019 1.9019v102.51c0 0.95093 0.95092 1.9019 1.9019 1.9019h23.583c1.1411 0 2.092-0.95093 2.092-1.9019v-102.51c0-1.1411-0.95093-1.9019-2.092-1.9019zm101.18 106.31h20.54c1.1411 0 1.9019-0.95093 1.9019-1.9019v-102.51c0-1.1411-0.76076-1.9019-1.9019-1.9019h-23.583c-1.1411 0-2.092 0.76074-2.092 1.9019v58.007h-0.76074c-4.9448-7.7976-39.178-55.534-39.939-57.056-1.7117-2.2822-1.5215-2.8528-7.6075-2.8528h-19.97c-1.1411 0-1.9019 0.76074-1.9019 1.9019v102.51c0 0.95093 0.76075 1.9019 1.9019 1.9019h23.583c1.1411 0 1.9019-0.95093 1.9019-1.9019v-57.436h0.95094l38.418 54.964c2.6626 3.6135 3.9939 4.3743 8.5584 4.3743zm-399.2-37.657c10.08-4.3743 15.215-13.313 15.215-24.724v-15.785c0-15.785-10.46-28.148-31-28.148h-59.528c-1.1411 0-1.9019 0.76074-1.9019 1.9019v18.638c0 0.95093 0.76074 1.9019 1.9019 1.9019h52.491c7.9878 0 11.031 3.8037 11.031 10.65v6.4663c0 6.6565-3.043 11.031-11.031 11.031h-27.006v-16.546c0-1.1411-0.76075-2.092-1.9019-2.092h-23.583c-1.1411 0-1.9019 0.95093-1.9019 2.092v70.369c0 0.95093 0.76074 1.9019 1.9019 1.9019h23.583c1.1411 0 1.9019-0.95093 1.9019-1.9019v-32.141h22.442l15.215 32.902c0.38037 0.76074 0.95093 1.1411 1.7117 1.1411h24.724c1.3313 0 2.2822-1.5215 1.7117-2.6626zm248.76 8.7486v-48.688c0-15.785-11.601-28.718-32.141-28.718h-60.479c-1.1411 0-2.092 0.76074-2.092 1.9019v102.51c0 0.95093 0.95092 1.9019 2.092 1.9019h23.773c0.95092 0 1.9019-0.95093 1.9019-1.9019l-0.19018-81.97h27.577c7.9878 0 11.982 2.8528 11.982 11.792v37.847c0 8.7486-3.9939 11.792-11.982 11.792h-15.785c-1.1411 0-2.0921 0.76075-2.0921 1.9019v18.638c0 0.95093 0.95094 1.9019 2.0921 1.9019h23.203c20.54 0 32.141-13.123 32.141-28.908zm-147.2-77.596h-34.994c-20.16 0.19019-30.62 12.742-30.62 28.338v49.829c0 15.976 10.46 28.528 31 28.528h34.234c20.54 0 31-12.552 31-28.528v-49.829c0-15.595-10.27-28.148-30.62-28.338z"/>
</svg>
